<svg width="65" height="65" viewBox="0 0 65 65" fill="none" xmlns="http://www.w3.org/2000/svg">
<g clip-path="url(#clip0_19_2)">
<rect x="8.23851" y="24.7207" width="37" height="37" rx="4.5" transform="rotate(-28.1963 8.23851 24.7207)" stroke="#C72323" stroke-width="3"/>
<rect x="14.6403" y="21.9167" width="39" height="39" rx="5.5" transform="rotate(-19.9024 14.6403 21.9167)" stroke="#C72323"/>
<rect x="0.707107" y="32.2843" width="39" height="39" rx="5.5" transform="rotate(-45 0.707107 32.2843)" fill="#C72323" stroke="black"/>
<path d="M28.416 41.336H26.232C18.968 41.336 15.336 39.224 15.336 35V34.76H22.824C22.952 36.44 24.44 37.28 27.288 37.28H27.504C28.416 37.28 29.176 37.24 29.784 37.16C30.392 37.064 30.84 36.936 31.128 36.776C31.416 36.6 31.608 36.424 31.704 36.248C31.816 36.056 31.872 35.84 31.872 35.6V35.576C31.872 35.24 31.784 34.976 31.608 34.784C31.448 34.576 31.048 34.4 30.408 34.256C29.784 34.096 28.872 34 27.672 33.968L24.36 33.872C18.52 33.712 15.6 31.92 15.6 28.496V28.28C15.6 27.656 15.688 27.096 15.864 26.6C16.04 26.088 16.36 25.592 16.824 25.112C17.288 24.632 17.896 24.232 18.648 23.912C19.4 23.592 20.384 23.336 21.6 23.144C22.832 22.936 24.256 22.832 25.872 22.832H28.008C35.24 22.832 38.856 24.712 38.856 28.472V28.664H31.44C31.296 27.4 29.856 26.768 27.12 26.768H26.88C25.76 26.768 24.896 26.84 24.288 26.984C23.68 27.112 23.304 27.264 23.16 27.44C23.016 27.6 22.944 27.816 22.944 28.088V28.112C22.944 28.384 23.024 28.608 23.184 28.784C23.36 28.96 23.744 29.12 24.336 29.264C24.928 29.392 25.76 29.464 26.832 29.48L30.048 29.552C33.424 29.648 35.84 30.12 37.296 30.968C38.752 31.8 39.48 33.12 39.48 34.928V35.264C39.48 35.92 39.4 36.52 39.24 37.064C39.08 37.592 38.76 38.136 38.28 38.696C37.8 39.24 37.16 39.704 36.36 40.088C35.576 40.456 34.504 40.76 33.144 41C31.8 41.224 30.224 41.336 28.416 41.336Z" fill="white"/>
</g>
<defs>
<clipPath id="clip0_19_2">
<rect width="65" height="65" fill="white"/>
</clipPath>
</defs>
</svg>
